<svg xmlns="http://www.w3.org/2000/svg" viewBox="0 0 30 30"><style type="text/css">
  .st0{fill:#F26423;}
  .st1{fill:#FFFFFF;}
</style><rect class="st0" width="30" height="30"/><path class="st1" d="M24.3 21.3L16 7.6c-0.4-0.7-1.5-0.7-2 0L5.7 21.3C5.2 22 5.8 23 6.6 23h16.7C24.2 23 24.8 22 24.3 21.3z"/><path id="XMLID_5_" d="M13.8,19.9c0-0.3,0.1-0.6,0.3-0.8c0.2-0.2,0.5-0.3,0.9-0.3c0.4,0,0.7,0.1,0.9,0.3c0.2,0.2,0.3,0.5,0.3,0.8
c0,0.3-0.1,0.6-0.3,0.8C15.6,20.9,15.4,21,15,21c-0.4,0-0.7-0.1-0.9-0.3C13.9,20.5,13.8,20.2,13.8,19.9z M15.8,12.7l-0.2,4.8
c0,0.2-0.1,0.3-0.2,0.4C15.3,17.9,15.1,18,15,18c-0.1,0-0.3-0.1-0.4-0.2c-0.1-0.1-0.2-0.2-0.2-0.4l-0.2-4.8v-0.1
c0-0.3,0.1-0.5,0.2-0.7c0.1-0.2,0.3-0.2,0.6-0.2c0.2,0,0.4,0.1,0.6,0.2C15.7,12.1,15.8,12.3,15.8,12.7L15.8,12.7z"/></svg>
